{"accessors" : [{"bufferView" : 0, "byteOffset" : 0, "componentType" : 5123, "count" : 20262, "type" : "SCALAR", "max" : [20261], "min" : [0]}, {"bufferView" : 1, "byteOffset" : 0, "componentType" : 5126, "count" : 20262, "type" : "VEC3", "max" : [1.3621289730072021, 3.5887699127197266, 1.3919509649276733], "min" : [-1.5695610046386719, 0, -1.4089959859848022], "name" : "POSITION"}, {"bufferView" : 1, "byteOffset" : 12, "componentType" : 5126, "count" : 20262, "type" : "VEC2", "max" : [3.22340989112854, -0.9223999977111816], "min" : [0.2234099954366684, -108.77393341064453], "name" : "TEXCOORD_0"}, {"bufferView" : 1, "byteOffset" : 20, "componentType" : 5126, "count" : 20262, "type" : "VEC3", "max" : [0.9999571442604065, 0.997806191444397, 0.9991035461425781], "min" : [-0.9999571442604065, -0.9995765686035156, -0.9984349012374878], "name" : "NORMAL"}, {"bufferView" : 0, "byteOffset" : 40524, "componentType" : 5123, "count" : 20910, "type" : "SCALAR", "max" : [20909], "min" : [0]}, {"bufferView" : 2, "byteOffset" : 0, "componentType" : 5126, "count" : 20910, "type" : "VEC3", "max" : [1.7888920307159424, 3.821959972381592, 1.7033220529556274], "min" : [-1.8449180126190186, 1.4947999715805054, -1.8419129848480225], "name" : "POSITION"}, {"bufferView" : 2, "byteOffset" : 12, "componentType" : 5126, "count" : 20910, "type" : "VEC2", "max" : [0.9989299774169922, 0.0006000000284984708], "min" : [-0.007439999841153622, -1.0010700225830078], "name" : "TEXCOORD_0"}, {"bufferView" : 2, "byteOffset" : 20, "componentType" : 5126, "count" : 20910, "type" : "VEC3", "max" : [0.9968696236610413, 0.9999141097068787, 0.9939723014831543], "min" : [-0.9999637603759766, -0.9999799728393555, -0.9964086413383484], "name" : "NORMAL"}], "asset" : {"generator" : "Aspose.3D 23.1", "version" : "2.0"}, "buffers" : [{"uri" : "data:application/octet-stream;base64,", "byteLength" : 1399860}], "bufferViews" : [{"buffer" : 0, "byteOffset" : 0, "byteLength" : 82344, "target" : 34963}, {"buffer" : 0, "byteOffset" : 82348, "byteLength" : 648384, "byteStride" : 32, "target" : 34962}, {"buffer" : 0, "byteOffset" : 730736, "byteLength" : 669120, "byteStride" : 32, "target" : 34962}], "meshes" : [{"primitives" : [{"attributes" : {"POSITION" : 1, "TEXCOORD_0" : 2, "NORMAL" : 3}, "indices" : 0, "mode" : 4}], "name" : ""}, {"primitives" : [{"attributes" : {"POSITION" : 5, "TEXCOORD_0" : 6, "NORMAL" : 7}, "indices" : 4, "mode" : 4}], "name" : ""}], "nodes" : [{"mesh" : 0, "name" : "Tree_polySurface1 g1 polySurface1"}, {"mesh" : 1, "name" : "Tree_polySurface1 g1 g2 polySurface1"}], "scene" : 0, "scenes" : [{"nodes" : [0, 1]}]}